<svg width="85" height="86" viewBox="0 0 85 86" fill="none" xmlns="http://www.w3.org/2000/svg">
<rect x="11.05" y="12.0411" width="62.7293" height="62.7002" rx="30" fill="url(#paint0_linear_1_76)"/>
<g clip-path="url(#clip0_1_76)" filter="url(#filter0_i_1_76)">
<path d="M22.95 62.168L25.6919 51.9776C23.4806 48.0079 22.778 43.3757 23.7131 38.9308C24.6482 34.486 27.1583 30.5267 30.7827 27.7796C34.407 25.0324 38.9026 23.6817 43.4445 23.9751C47.9864 24.2686 52.2698 26.1867 55.5089 29.3773C58.748 32.5679 60.7253 36.8172 61.0782 41.3452C61.431 45.8733 60.1357 50.3765 57.4298 54.0284C54.724 57.6803 50.7891 60.2361 46.3473 61.2266C41.9055 62.2172 37.2547 61.5761 33.2483 59.4211L22.95 62.168ZM33.7449 55.6078L34.3818 55.9848C37.2837 57.7012 40.6731 58.4115 44.0217 58.0049C47.3704 57.5984 50.4902 56.0979 52.8951 53.7373C55.2999 51.3767 56.8547 48.2885 57.3171 44.9541C57.7794 41.6196 57.1235 38.2262 55.4514 35.3027C53.7793 32.3791 51.185 30.0896 48.0728 28.7909C44.9606 27.4923 41.5053 27.2574 38.2453 28.123C34.9854 28.9885 32.104 30.9058 30.05 33.5762C27.9961 36.2465 26.8851 39.5198 26.8901 42.886C26.8874 45.6771 27.6609 48.4142 29.1247 50.7927L29.5241 51.4498L27.9912 57.1374L33.7449 55.6078Z" fill="white"/>
<path fill-rule="evenodd" clip-rule="evenodd" d="M49.2029 45.5026C48.8296 45.2021 48.3924 44.9906 47.9247 44.8842C47.4571 44.7778 46.9712 44.7793 46.5042 44.8886C45.8025 45.1794 45.3492 46.2782 44.8958 46.8276C44.8002 46.9593 44.6597 47.0516 44.5007 47.0873C44.3417 47.123 44.1751 47.0996 44.0322 47.0215C41.4633 46.0175 39.3101 44.1763 37.9222 41.797C37.8039 41.6485 37.7478 41.46 37.766 41.2711C37.7841 41.0823 37.8749 40.9078 38.0194 40.7844C38.5251 40.2849 38.8963 39.6662 39.0989 38.9855C39.1439 38.2347 38.9715 37.4868 38.6023 36.8311C38.3169 35.9118 37.7738 35.0932 37.0371 34.472C36.6571 34.3015 36.2358 34.2443 35.8239 34.3074C35.4121 34.3704 35.0274 34.5511 34.7161 34.8275C34.1758 35.2927 33.747 35.8729 33.4611 36.5254C33.1753 37.1779 33.0398 37.886 33.0645 38.5977C33.0662 38.9974 33.1169 39.3953 33.2156 39.7826C33.4663 40.7132 33.8518 41.6023 34.3599 42.4218C34.7265 43.0495 35.1265 43.6572 35.5582 44.2423C36.961 46.164 38.7244 47.7956 40.7505 49.0466C41.7672 49.6823 42.8539 50.1992 43.989 50.587C45.1681 51.1204 46.47 51.3251 47.7564 51.1795C48.4894 51.0688 49.1838 50.78 49.7786 50.3386C50.3735 49.8972 50.8504 49.3166 51.1676 48.648C51.354 48.2442 51.4105 47.7926 51.3295 47.3554C51.1352 46.4613 49.937 45.9335 49.2029 45.5026Z" fill="white"/>
</g>
<defs>
<filter id="filter0_i_1_76" x="22.95" y="23.9357" width="38.25" height="38.7323" filterUnits="userSpaceOnUse" color-interpolation-filters="sRGB">
<feFlood flood-opacity="0" result="BackgroundImageFix"/>
<feBlend mode="normal" in="SourceGraphic" in2="BackgroundImageFix" result="shape"/>
<feColorMatrix in="SourceAlpha" type="matrix" values="0 0 0 0 0 0 0 0 0 0 0 0 0 0 0 0 0 0 127 0" result="hardAlpha"/>
<feOffset dy="0.5"/>
<feGaussianBlur stdDeviation="1.25"/>
<feComposite in2="hardAlpha" operator="arithmetic" k2="-1" k3="1"/>
<feColorMatrix type="matrix" values="0 0 0 0 0 0 0 0 0 0 0 0 0 0 0 0 0 0 0.1 0"/>
<feBlend mode="normal" in2="shape" result="effect1_innerShadow_1_76"/>
</filter>
<linearGradient id="paint0_linear_1_76" x1="46.75" y1="76.6112" x2="17.4476" y2="12.0309" gradientUnits="userSpaceOnUse">
<stop stop-color="#00D95F"/>
<stop offset="1" stop-color="#07FF74"/>
</linearGradient>
<clipPath id="clip0_1_76">
<rect width="38.25" height="38.2323" fill="white" transform="translate(22.95 23.9357)"/>
</clipPath>
</defs>
</svg>
